{
  "accessors": [
    {
      "bufferView": 2,
      "componentType": 5126,
      "count": 65532,
      "max": [
        11.198643684387207,
        4.151885986328125,
        20.694244384765625
      ],
      "min": [
        1.5605859756469727,
        -6.8154640197753906,
        17.816505432128906
      ],
      "type": "VEC3"
    },
    {
      "bufferView": 2,
      "byteOffset": 786384,
      "componentType": 5126,
      "count": 65532,
      "max": [
        0.99999463558197021,
        0.99999946355819702,
        0.99999821186065674
      ],
      "min": [
        -0.99997466802597046,
        -1,
        -0.99999678134918213
      ],
      "type": "VEC3"
    },
    {
      "bufferView": 3,
      "componentType": 5126,
      "count": 65532,
      "max": [
        0.99999982118606567,
        0.99999964237213135,
        0.99999994039535522,
        1
      ],
      "min": [
        -0.99999988079071045,
        -0.99999672174453735,
        -0.99998986721038818,
        -1
      ],
      "type": "VEC4"
    },
    {
      "bufferView": 1,
      "componentType": 5126,
      "count": 65532,
      "max": [
        0.99574899673461914,
        1.0000220537185669
      ],
      "min": [
        0.0035719999577850103,
        0.003329999977722764
      ],
      "type": "VEC2"
    },
    {
      "bufferView": 0,
      "componentType": 5125,
      "count": 290502,
      "max": [
        65531
      ],
      "min": [
        0
      ],
      "type": "SCALAR"
    },
    {
      "bufferView": 2,
      "byteOffset": 1572768,
      "componentType": 5126,
      "count": 65532,
      "max": [
        11.173418998718262,
        4.1516461372375488,
        20.631961822509766
      ],
      "min": [
        0.30625998973846436,
        -6.8179140090942383,
        17.744895935058594
      ],
      "type": "VEC3"
    },
    {
      "bufferView": 2,
      "byteOffset": 2359152,
      "componentType": 5126,
      "count": 65532,
      "max": [
        0.99998635053634644,
        0.99999666213989258,
        0.9999958872795105
      ],
      "min": [
        -0.99992865324020386,
        -1,
        -0.9999995231628418
      ],
      "type": "VEC3"
    },
    {
      "bufferView": 3,
      "byteOffset": 1048512,
      "componentType": 5126,
      "count": 65532,
      "max": [
        0.99999451637268066,
        0.99999058246612549,
        0.99999862909317017,
        1
      ],
      "min": [
        -0.99999964237213135,
        -0.99999672174453735,
        -0.9999358057975769,
        -1
      ],
      "type": "VEC4"
    },
    {
      "bufferView": 1,
      "byteOffset": 524256,
      "componentType": 5126,
      "count": 65532,
      "max": [
        0.99593198299407959,
        0.99993199110031128
      ],
      "min": [
        0.00026699999580159783,
        0.0030700000934302807
      ],
      "type": "VEC2"
    },
    {
      "bufferView": 0,
      "byteOffset": 1162008,
      "componentType": 5125,
      "count": 261297,
      "max": [
        65531
      ],
      "min": [
        0
      ],
      "type": "SCALAR"
    },
    {
      "bufferView": 2,
      "byteOffset": 3145536,
      "componentType": 5126,
      "count": 55883,
      "max": [
        10.909045219421387,
        4.1518220901489258,
        20.694244384765625
      ],
      "min": [
        0.10718400031328201,
        -6.4879817962646484,
        17.820568084716797
      ],
      "type": "VEC3"
    },
    {
      "bufferView": 2,
      "byteOffset": 3816132,
      "componentType": 5126,
      "count": 55883,
      "max": [
        0.99998188018798828,
        0.99999821186065674,
        0.99999845027923584
      ],
      "min": [
        -0.99999237060546875,
        -0.99999910593032837,
        -0.99999451637268066
      ],
      "type": "VEC3"
    },
    {
      "bufferView": 3,
      "byteOffset": 2097024,
      "componentType": 5126,
      "count": 55883,
      "max": [
        0.99999982118606567,
        0.99999964237213135,
        0.99999994039535522,
        1
      ],
      "min": [
        -0.99999743700027466,
        -0.99999874830245972,
        -0.99999707937240601,
        -1
      ],
      "type": "VEC4"
    },
    {
      "bufferView": 1,
      "byteOffset": 1048512,
      "componentType": 5126,
      "count": 55883,
      "max": [
        0.99601900577545166,
        1.0002750158309937
      ],
      "min": [
        1.2000000424450263e-05,
        0.0037249999586492777
      ],
      "type": "VEC2"
    },
    {
      "bufferView": 0,
      "byteOffset": 2207196,
      "componentType": 5125,
      "count": 198201,
      "max": [
        55882
      ],
      "min": [
        0
      ],
      "type": "SCALAR"
    }
  ],
  "asset": {
    "extras": {
      "author": "spogna (https://sketchfab.com/spogna)",
      "license": "CC-BY-NC-4.0 (http://creativecommons.org/licenses/by-nc/4.0/)",
      "source": "https://sketchfab.com/models/ac65e0168e8c423db9c9fdc71397c84e",
      "title": "Sailing Ship Model"
    },
    "generator": "Sketchfab-3.19.2",
    "version": "2.0"
  },
  "bufferViews": [
    {
      "buffer": 0,
      "byteLength": 3000000,
      "byteOffset": 0,
      "name": "floatBufferViews",
      "target": 34963
    },
    {
      "buffer": 0,
      "byteLength": 1495576,
      "byteOffset": 3000000,
      "byteStride": 8,
      "name": "floatBufferViews",
      "target": 34962
    },
    {
      "buffer": 0,
      "byteLength": 4486728,
      "byteOffset": 4495576,
      "byteStride": 12,
      "name": "floatBufferViews",
      "target": 34962
    },
    {
      "buffer": 0,
      "byteLength": 2991152,
      "byteOffset": 8982304,
      "byteStride": 16,
      "name": "floatBufferViews",
      "target": 34962
    }
  ],
  "buffers": [
    {
      "byteLength": 11973456,
      "uri": "scene.bin"
    }
  ],
  "extensionsUsed": [
    "KHR_materials_unlit"
  ],
  "images": [
    {
      "uri": "textures/veliero_baseColor.jpeg"
    }
  ],
  "materials": [
    {
      "doubleSided": true,
      "emissiveFactor": [
        0,
        0,
        0
      ],
      "extensions": {
        "KHR_materials_unlit": {}
      },
      "name": "veliero",
      "pbrMetallicRoughness": {
        "baseColorFactor": [
          1,
          1,
          1,
          1
        ],
        "baseColorTexture": {
          "index": 0,
          "texCoord": 0
        },
        "metallicFactor": 0,
        "roughnessFactor": 1
      }
    }
  ],
  "meshes": [
    {
      "primitives": [
        {
          "attributes": {
            "NORMAL": 1,
            "POSITION": 0,
            "TANGENT": 2,
            "TEXCOORD_0": 3
          },
          "indices": 4,
          "material": 0,
          "mode": 4
        }
      ]
    },
    {
      "primitives": [
        {
          "attributes": {
            "NORMAL": 6,
            "POSITION": 5,
            "TANGENT": 7,
            "TEXCOORD_0": 8
          },
          "indices": 9,
          "material": 0,
          "mode": 4
        }
      ]
    },
    {
      "primitives": [
        {
          "attributes": {
            "NORMAL": 11,
            "POSITION": 10,
            "TANGENT": 12,
            "TEXCOORD_0": 13
          },
          "indices": 14,
          "material": 0,
          "mode": 4
        }
      ]
    }
  ],
  "nodes": [
    {
      "children": [
        1
      ],
      "name": "RootNode (gltf orientation matrix)",
      "rotation": [
        -0.70710678118654746,
        -0,
        -0,
        0.70710678118654757
      ]
    },
    {
      "children": [
        2
      ],
      "matrix": [
        -1,
        0,
        0,
        0,
        0,
        0,
        -1,
        0,
        0,
        -1,
        0,
        0,
        11.305827140808105,
        17.886554718017578,
        17.886554718017578,
        1
      ],
      "name": "RootNode (model correction matrix)"
    },
    {
      "children": [
        3,
        4,
        5
      ],
      "name": "veliero.obj.cleaner.materialmerger.gles"
    },
    {
      "mesh": 0,
      "name": ""
    },
    {
      "mesh": 1,
      "name": ""
    },
    {
      "mesh": 2,
      "name": ""
    }
  ],
  "samplers": [
    {
      "magFilter": 9729,
      "minFilter": 9987,
      "wrapS": 10497,
      "wrapT": 10497
    }
  ],
  "scene": 0,
  "scenes": [
    {
      "name": "OSG_Scene",
      "nodes": [
        0
      ]
    }
  ],
  "textures": [
    {
      "sampler": 0,
      "source": 0
    }
  ]
}

