{"accessors":[{"bufferView":2,"componentType":5126,"count":32,"max":[11.435253143310547,5.8268842697143555,1.1467602252960205],"min":[-11.435253143310547,-5.853764057159424,-1.1191773414611816],"type":"VEC3"},{"bufferView":2,"byteOffset":384,"componentType":5126,"count":32,"max":[2.0316258897423722e-8,0.7071068286895752,0.7071068286895752],"min":[-2.0286815782810663e-8,-0.7071068286895752,-0.70710688829422],"type":"VEC3"},{"bufferView":3,"componentType":5126,"count":32,"max":[1,1.2952699535162537e-7,1.0795702820587394e-7,1],"min":[-1,4.323566216157815e-8,6.481477754505249e-8,-1],"type":"VEC4"},{"bufferView":1,"componentType":5126,"count":32,"max":[2.0156283378601074,0.753110408782959],"min":[0.2439774125814438,0.25346946716308594],"type":"VEC2"},{"bufferView":0,"componentType":5125,"count":48,"max":[31],"min":[0],"type":"SCALAR"},{"bufferView":2,"byteOffset":768,"componentType":5126,"count":1081,"max":[11.502342224121094,5.90897274017334,1.297364592552185],"min":[-11.502342224121094,-5.949407577514648,-1.297364354133606],"type":"VEC3"},{"bufferView":2,"byteOffset":13740,"componentType":5126,"count":1081,"max":[1,1,1],"min":[-1,-1,-1],"type":"VEC3"},{"bufferView":3,"byteOffset":512,"componentType":5126,"count":1081,"max":[1,1,1,1],"min":[-1,-1,-1,-1],"type":"VEC4"},{"bufferView":1,"byteOffset":256,"componentType":5126,"count":1081,"max":[1.147397756576538,1.0980809926986694],"min":[-0.851861298084259,-0.8072514533996582],"type":"VEC2"},{"bufferView":0,"byteOffset":192,"componentType":5125,"count":2628,"max":[1080],"min":[0],"type":"SCALAR"},{"bufferView":2,"byteOffset":26712,"componentType":5126,"count":18,"max":[1.3110460042953491,2.9902000427246094,1.3113138675689697],"min":[-1.3110456466674805,-2.9902005195617676,0.0027213089633733034],"type":"VEC3"},{"bufferView":2,"byteOffset":26928,"componentType":5126,"count":18,"max":[0.9806850552558899,0,1],"min":[-0.9806850552558899,0,0.19559378921985626],"type":"VEC3"},{"bufferView":3,"byteOffset":17808,"componentType":5126,"count":18,"max":[7.569022386633151e-7,1,0.0000018367981056144345,1],"min":[-5.992560545564629e-7,1,0,1],"type":"VEC4"},{"bufferView":1,"byteOffset":8904,"componentType":5126,"count":18,"max":[0.99991774559021,0.9966903924942017],"min":[0.00008226962381741032,0.00008195774717023596],"type":"VEC2"},{"bufferView":0,"byteOffset":10704,"componentType":5125,"count":48,"max":[17],"min":[0],"type":"SCALAR"}],"asset":{"extras":{"author":"Euan Mitchell (https://sketchfab.com/tigg)","license":"CC-BY-4.0 (http://creativecommons.org/licenses/by/4.0/)","source":"https://sketchfab.com/models/90c8fafa35c84e3b90601dd3ac8d202f","title":"Satellite"},"generator":"Sketchfab-3.20.7","version":"2.0"},"bufferViews":[{"buffer":0,"byteLength":10896,"byteOffset":0,"name":"floatBufferViews","target":34963},{"buffer":0,"byteLength":9048,"byteOffset":10896,"byteStride":8,"name":"floatBufferViews","target":34962},{"buffer":0,"byteLength":27144,"byteOffset":19944,"byteStride":12,"name":"floatBufferViews","target":34962},{"buffer":0,"byteLength":18096,"byteOffset":47088,"byteStride":16,"name":"floatBufferViews","target":34962}],"buffers":[{"byteLength":65184,"uri":"0f400617c5aeb0eb591c696629d1f9a7.bin"}],"images":[{"uri":"70d7e10552d98298e9a5c942e4b17dd2.png"},{"uri":"0caef00a8fbb0a025bfe5a9185e1da29.png"},{"uri":"89658d5ab95b93a22f490f3966f425a2.png"},{"uri":"347603c9f9e001da22da4cfa44df6e12.png"},{"uri":"90fd0f348f2cfc16eee76b23cfa6ca51.png"},{"uri":"7536727ddfd40915e4b6c4e78c1fd370.png"}],"materials":[{"doubleSided":true,"emissiveFactor":[0,0,0],"name":"solarpanels","normalTexture":{"index":0,"scale":1,"texCoord":0},"pbrMetallicRoughness":{"baseColorFactor":[1,1,1,1],"baseColorTexture":{"index":2,"texCoord":0},"metallicFactor":1,"metallicRoughnessTexture":{"index":1,"texCoord":0},"roughnessFactor":1}},{"doubleSided":true,"emissiveFactor":[0,0,0],"name":"panels","normalTexture":{"index":3,"scale":1,"texCoord":0},"pbrMetallicRoughness":{"baseColorFactor":[1,1,1,1],"baseColorTexture":{"index":4,"texCoord":0},"metallicFactor":0,"roughnessFactor":0.5579664122}},{"alphaMode":"BLEND","doubleSided":false,"emissiveFactor":[0,0,0],"name":"decals","pbrMetallicRoughness":{"baseColorFactor":[1,1,1,1],"baseColorTexture":{"index":5,"texCoord":0},"metallicFactor":0,"roughnessFactor":1}}],"meshes":[{"name":"Circle_solarpanels_0","primitives":[{"attributes":{"NORMAL":1,"POSITION":0,"TANGENT":2,"TEXCOORD_0":3},"indices":4,"material":0,"mode":4}]},{"name":"Circle_panels_0","primitives":[{"attributes":{"NORMAL":6,"POSITION":5,"TANGENT":7,"TEXCOORD_0":8},"indices":9,"material":1,"mode":4}]},{"name":"Circle_decals_0","primitives":[{"attributes":{"NORMAL":11,"POSITION":10,"TANGENT":12,"TEXCOORD_0":13},"indices":14,"material":2,"mode":4}]}],"nodes":[{"children":[1],"name":"RootNode (gltf orientation matrix)","rotation":[-0.7071067811865475,0,0,0.7071067811865476]},{"children":[2],"name":"RootNode (model correction matrix)"},{"children":[3],"matrix":[1,0,0,0,0,0,1,0,0,-1,0,0,0,0,0,1],"name":"9e445456817142dea33796d5777c743e_fbx"},{"children":[4],"name":"RootNode"},{"children":[5,6,7],"matrix":[94.86793810088916,-12.39940625727188,-29.09170876855021,0,-7.357471021318673e-8,91.99271242262525,-39.208938536106416,0,31.623927564535915,37.19671156185325,87.27158946930227,0,0,0,0,1],"name":"Circle"},{"mesh":0,"name":"Circle_solarpanels_0"},{"mesh":1,"name":"Circle_panels_0"},{"mesh":2,"name":"Circle_decals_0"}],"samplers":[{"magFilter":9729,"minFilter":9987,"wrapS":10497,"wrapT":10497}],"scene":0,"scenes":[{"name":"OSG_Scene","nodes":[0]}],"textures":[{"sampler":0,"source":0},{"sampler":0,"source":1},{"sampler":0,"source":2},{"sampler":0,"source":3},{"sampler":0,"source":4},{"sampler":0,"source":5}]}