{"accessors":[{"bufferView":2,"componentType":5126,"count":65532,"max":[11.198643684387207,4.151885986328125,20.694244384765625],"min":[1.5605859756469727,-6.815464019775391,17.816505432128906],"type":"VEC3"},{"bufferView":2,"byteOffset":786384,"componentType":5126,"count":65532,"max":[0.9999946355819702,0.999999463558197,0.9999982118606567],"min":[-0.9999746680259705,-1,-0.9999967813491821],"type":"VEC3"},{"bufferView":3,"componentType":5126,"count":65532,"max":[0.9999998211860657,0.9999996423721313,0.9999999403953552,1],"min":[-0.9999998807907104,-0.9999967217445374,-0.9999898672103882,-1],"type":"VEC4"},{"bufferView":1,"componentType":5126,"count":65532,"max":[0.9957489967346191,1.000022053718567],"min":[0.0035719999577850103,0.003329999977722764],"type":"VEC2"},{"bufferView":0,"componentType":5125,"count":290502,"max":[65531],"min":[0],"type":"SCALAR"},{"bufferView":2,"byteOffset":1572768,"componentType":5126,"count":65532,"max":[11.173418998718262,4.151646137237549,20.631961822509766],"min":[0.30625998973846436,-6.817914009094238,17.744895935058594],"type":"VEC3"},{"bufferView":2,"byteOffset":2359152,"componentType":5126,"count":65532,"max":[0.9999863505363464,0.9999966621398926,0.9999958872795105],"min":[-0.9999286532402039,-1,-0.9999995231628418],"type":"VEC3"},{"bufferView":3,"byteOffset":1048512,"componentType":5126,"count":65532,"max":[0.9999945163726807,0.9999905824661255,0.9999986290931702,1],"min":[-0.9999996423721313,-0.9999967217445374,-0.9999358057975769,-1],"type":"VEC4"},{"bufferView":1,"byteOffset":524256,"componentType":5126,"count":65532,"max":[0.9959319829940796,0.9999319911003113],"min":[0.00026699999580159783,0.0030700000934302807],"type":"VEC2"},{"bufferView":0,"byteOffset":1162008,"componentType":5125,"count":261297,"max":[65531],"min":[0],"type":"SCALAR"},{"bufferView":2,"byteOffset":3145536,"componentType":5126,"count":55883,"max":[10.909045219421387,4.151822090148926,20.694244384765625],"min":[0.10718400031328201,-6.487981796264648,17.820568084716797],"type":"VEC3"},{"bufferView":2,"byteOffset":3816132,"componentType":5126,"count":55883,"max":[0.9999818801879883,0.9999982118606567,0.9999984502792358],"min":[-0.9999923706054688,-0.9999991059303284,-0.9999945163726807],"type":"VEC3"},{"bufferView":3,"byteOffset":2097024,"componentType":5126,"count":55883,"max":[0.9999998211860657,0.9999996423721313,0.9999999403953552,1],"min":[-0.9999974370002747,-0.9999987483024597,-0.999997079372406,-1],"type":"VEC4"},{"bufferView":1,"byteOffset":1048512,"componentType":5126,"count":55883,"max":[0.9960190057754517,1.0002750158309937],"min":[0.000012000000424450263,0.0037249999586492777],"type":"VEC2"},{"bufferView":0,"byteOffset":2207196,"componentType":5125,"count":198201,"max":[55882],"min":[0],"type":"SCALAR"}],"asset":{"extras":{"author":"spogna (https://sketchfab.com/spogna)","license":"CC-BY-NC-4.0 (http://creativecommons.org/licenses/by-nc/4.0/)","source":"https://sketchfab.com/models/ac65e0168e8c423db9c9fdc71397c84e","title":"Sailing Ship Model"},"generator":"Sketchfab-3.19.2","version":"2.0"},"bufferViews":[{"buffer":0,"byteLength":3000000,"byteOffset":0,"name":"floatBufferViews","target":34963},{"buffer":0,"byteLength":1495576,"byteOffset":3000000,"byteStride":8,"name":"floatBufferViews","target":34962},{"buffer":0,"byteLength":4486728,"byteOffset":4495576,"byteStride":12,"name":"floatBufferViews","target":34962},{"buffer":0,"byteLength":2991152,"byteOffset":8982304,"byteStride":16,"name":"floatBufferViews","target":34962}],"buffers":[{"byteLength":11973456,"uri":"5940ca6a37bb5ba0d389193da6c982c7.bin"}],"extensionsUsed":["KHR_materials_unlit"],"images":[{"uri":"c871382f0f06d908f4ecf20374a3bba9.jpeg"}],"materials":[{"doubleSided":true,"emissiveFactor":[0,0,0],"extensions":{"KHR_materials_unlit":{}},"name":"veliero","pbrMetallicRoughness":{"baseColorFactor":[1,1,1,1],"baseColorTexture":{"index":0,"texCoord":0},"metallicFactor":0,"roughnessFactor":1}}],"meshes":[{"primitives":[{"attributes":{"NORMAL":1,"POSITION":0,"TANGENT":2,"TEXCOORD_0":3},"indices":4,"material":0,"mode":4}]},{"primitives":[{"attributes":{"NORMAL":6,"POSITION":5,"TANGENT":7,"TEXCOORD_0":8},"indices":9,"material":0,"mode":4}]},{"primitives":[{"attributes":{"NORMAL":11,"POSITION":10,"TANGENT":12,"TEXCOORD_0":13},"indices":14,"material":0,"mode":4}]}],"nodes":[{"children":[1],"name":"RootNode (gltf orientation matrix)","rotation":[-0.7071067811865475,0,0,0.7071067811865476]},{"children":[2],"matrix":[-1,0,0,0,0,0,-1,0,0,-1,0,0,11.305827140808105,17.886554718017578,17.886554718017578,1],"name":"RootNode (model correction matrix)"},{"children":[3,4,5],"name":"veliero.obj.cleaner.materialmerger.gles"},{"mesh":0,"name":""},{"mesh":1,"name":""},{"mesh":2,"name":""}],"samplers":[{"magFilter":9729,"minFilter":9987,"wrapS":10497,"wrapT":10497}],"scene":0,"scenes":[{"name":"OSG_Scene","nodes":[0]}],"textures":[{"sampler":0,"source":0}]}