{"accessors":[{"bufferView":1,"componentType":5126,"count":4728,"max":[-0.5065469741821289,0.8450329899787903,0.8277249932289124],"min":[-2.161608934402466,-0.9712370038032532,-0.8304640054702759],"type":"VEC3"},{"bufferView":1,"byteOffset":56736,"componentType":5126,"count":4728,"max":[0.9999980926513672,0.9999942183494568,0.9999989867210388],"min":[-0.9999808669090271,-0.9999989867210388,-0.9999773502349854],"type":"VEC3"},{"bufferView":0,"componentType":5125,"count":28569,"max":[4727],"min":[0],"type":"SCALAR"},{"bufferView":1,"byteOffset":113472,"componentType":5126,"count":13499,"max":[2.0334579944610596,0.9216669797897339,0.8413059711456299],"min":[0.2724590003490448,-1.0471999645233154,-0.8422030210494995],"type":"VEC3"},{"bufferView":1,"byteOffset":275460,"componentType":5126,"count":13499,"max":[0.999472975730896,0.9999948740005493,0.999995231628418],"min":[-0.9999783635139465,-0.999996542930603,-0.9999998807907104],"type":"VEC3"},{"bufferView":0,"byteOffset":114276,"componentType":5125,"count":81177,"max":[13498],"min":[0],"type":"SCALAR"}],"asset":{"extras":{"author":"JorgeChueca (https://sketchfab.com/JorgeChueca)","license":"CC-BY-4.0 (http://creativecommons.org/licenses/by/4.0/)","source":"https://sketchfab.com/3d-models/icosahedrons-8f71d7f5d9b6432e8a0728b145ccf0e8","title":"Icosahedrons"},"generator":"Sketchfab-6.33.0","version":"2.0"},"bufferViews":[{"buffer":0,"byteLength":438984,"byteOffset":0,"name":"floatBufferViews","target":34963},{"buffer":0,"byteLength":437448,"byteOffset":438984,"byteStride":12,"name":"floatBufferViews","target":34962}],"buffers":[{"byteLength":876432,"uri":"546c5dd65d6002bce95a884fd19470d9.bin"}],"materials":[{"doubleSided":true,"name":"initialShadingGroup","pbrMetallicRoughness":{"baseColorFactor":[1,1,1,1],"metallicFactor":0,"roughnessFactor":0.6}}],"meshes":[{"primitives":[{"attributes":{"NORMAL":1,"POSITION":0},"indices":2,"material":0,"mode":4}]},{"primitives":[{"attributes":{"NORMAL":4,"POSITION":3},"indices":5,"material":0,"mode":4}]}],"nodes":[{"children":[1],"name":"RootNode (gltf orientation matrix)","rotation":[-0.7071067811865475,0,0,0.7071067811865476]},{"children":[2],"name":"RootNode (model correction matrix)"},{"children":[3,4],"name":"Icosahedrons.obj.cleaner.materialmerger.gles"},{"mesh":0,"name":""},{"mesh":1,"name":""}],"scene":0,"scenes":[{"name":"OSG_Scene","nodes":[0]}]}