{"accessors":[{"bufferView":2,"componentType":5126,"count":17358,"max":[0.668556272983551,0.8799268007278442,0.9919244050979614],"min":[-0.6679636240005493,-0.9085731506347656,-1.005160927772522],"type":"VEC3"},{"bufferView":2,"byteOffset":208296,"componentType":5126,"count":17358,"max":[0.9999207258224487,0.9999319314956665,0.9999056458473206],"min":[-0.9999850988388062,-0.9996305704116821,-0.999985933303833],"type":"VEC3"},{"bufferView":3,"componentType":5126,"count":17358,"max":[0.9999969601631165,0.9999688267707825,0.9999526143074036,1],"min":[-0.9999236464500427,-0.9999648928642273,-0.9999880194664001,-1],"type":"VEC4"},{"bufferView":3,"byteOffset":277728,"componentType":5126,"count":17358,"max":[1,1,1,1],"min":[1,1,1,1],"type":"VEC4"},{"bufferView":1,"componentType":5126,"count":17358,"max":[0.9974700212478638,0.9892600178718567],"min":[0.0019499999471008778,0.0019499999471008778],"type":"VEC2"},{"bufferView":0,"componentType":5125,"count":93048,"max":[17357],"min":[0],"type":"SCALAR"}],"asset":{"extras":{"author":"martinjario (https://sketchfab.com/martinjario)","license":"CC-BY-4.0 (http://creativecommons.org/licenses/by/4.0/)","source":"https://sketchfab.com/3d-models/skull-downloadable-1a9db900738d44298b0bc59f68123393","title":"Skull downloadable"},"generator":"Sketchfab-8.77.1","version":"2.0"},"bufferViews":[{"buffer":0,"byteLength":372192,"byteOffset":0,"name":"floatBufferViews","target":34963},{"buffer":0,"byteLength":138864,"byteOffset":372192,"byteStride":8,"name":"floatBufferViews","target":34962},{"buffer":0,"byteLength":416592,"byteOffset":511056,"byteStride":12,"name":"floatBufferViews","target":34962},{"buffer":0,"byteLength":555456,"byteOffset":927648,"byteStride":16,"name":"floatBufferViews","target":34962}],"buffers":[{"byteLength":1483104,"uri":"90db9e9ede027b572fb0596f3eb1bd4c.bin"}],"images":[{"uri":"4643ce218bfd330aebb8678a936ae1c7.jpeg"},{"uri":"17d2c200e74a3ee1d60b6e3d36950e2b.jpeg"}],"materials":[{"doubleSided":false,"emissiveFactor":[0,0,0],"name":"defaultMat","normalTexture":{"index":1,"scale":0.85,"texCoord":0},"pbrMetallicRoughness":{"baseColorFactor":[1,1,1,1],"baseColorTexture":{"index":0,"texCoord":0},"metallicFactor":0,"roughnessFactor":0.6}}],"meshes":[{"primitives":[{"attributes":{"COLOR_0":3,"NORMAL":1,"POSITION":0,"TANGENT":2,"TEXCOORD_0":4},"indices":5,"material":0,"mode":4}]}],"nodes":[{"children":[1],"name":"RootNode (gltf orientation matrix)","rotation":[-0.7071067811865475,0,0,0.7071067811865476]},{"children":[2],"name":"RootNode (model correction matrix)"},{"children":[3],"name":"craneo.OBJ.cleaner.gles"},{"mesh":0,"name":""}],"samplers":[{"magFilter":9729,"minFilter":9987,"wrapS":10497,"wrapT":10497}],"scene":0,"scenes":[{"name":"OSG_Scene","nodes":[0]}],"textures":[{"sampler":0,"source":0},{"sampler":0,"source":1}]}