{
  "accessors": [
    {
      "bufferView": 1,
      "componentType": 5126,
      "count": 4728,
      "max": [
        -0.50654697418212891,
        0.84503298997879028,
        0.82772499322891235
      ],
      "min": [
        -2.1616089344024658,
        -0.97123700380325317,
        -0.83046400547027588
      ],
      "type": "VEC3"
    },
    {
      "bufferView": 1,
      "byteOffset": 56736,
      "componentType": 5126,
      "count": 4728,
      "max": [
        0.99999809265136719,
        0.99999421834945679,
        0.99999898672103882
      ],
      "min": [
        -0.9999808669090271,
        -0.99999898672103882,
        -0.99997735023498535
      ],
      "type": "VEC3"
    },
    {
      "bufferView": 0,
      "componentType": 5125,
      "count": 28569,
      "max": [
        4727
      ],
      "min": [
        0
      ],
      "type": "SCALAR"
    },
    {
      "bufferView": 1,
      "byteOffset": 113472,
      "componentType": 5126,
      "count": 13499,
      "max": [
        2.0334579944610596,
        0.92166697978973389,
        0.84130597114562988
      ],
      "min": [
        0.2724590003490448,
        -1.0471999645233154,
        -0.84220302104949951
      ],
      "type": "VEC3"
    },
    {
      "bufferView": 1,
      "byteOffset": 275460,
      "componentType": 5126,
      "count": 13499,
      "max": [
        0.999472975730896,
        0.99999487400054932,
        0.99999523162841797
      ],
      "min": [
        -0.99997836351394653,
        -0.99999654293060303,
        -0.99999988079071045
      ],
      "type": "VEC3"
    },
    {
      "bufferView": 0,
      "byteOffset": 114276,
      "componentType": 5125,
      "count": 81177,
      "max": [
        13498
      ],
      "min": [
        0
      ],
      "type": "SCALAR"
    }
  ],
  "asset": {
    "extras": {
      "author": "JorgeChueca (https://sketchfab.com/JorgeChueca)",
      "license": "CC-BY-4.0 (http://creativecommons.org/licenses/by/4.0/)",
      "source": "https://sketchfab.com/3d-models/icosahedrons-8f71d7f5d9b6432e8a0728b145ccf0e8",
      "title": "Icosahedrons"
    },
    "generator": "Sketchfab-6.33.0",
    "version": "2.0"
  },
  "bufferViews": [
    {
      "buffer": 0,
      "byteLength": 438984,
      "byteOffset": 0,
      "name": "floatBufferViews",
      "target": 34963
    },
    {
      "buffer": 0,
      "byteLength": 437448,
      "byteOffset": 438984,
      "byteStride": 12,
      "name": "floatBufferViews",
      "target": 34962
    }
  ],
  "buffers": [
    {
      "byteLength": 876432,
      "uri": "scene.bin"
    }
  ],
  "materials": [
    {
      "doubleSided": true,
      "name": "initialShadingGroup",
      "pbrMetallicRoughness": {
        "baseColorFactor": [
          1,
          1,
          1,
          1
        ],
        "metallicFactor": 0,
        "roughnessFactor": 0.59999999999999998
      }
    }
  ],
  "meshes": [
    {
      "primitives": [
        {
          "attributes": {
            "NORMAL": 1,
            "POSITION": 0
          },
          "indices": 2,
          "material": 0,
          "mode": 4
        }
      ]
    },
    {
      "primitives": [
        {
          "attributes": {
            "NORMAL": 4,
            "POSITION": 3
          },
          "indices": 5,
          "material": 0,
          "mode": 4
        }
      ]
    }
  ],
  "nodes": [
    {
      "children": [
        1
      ],
      "name": "RootNode (gltf orientation matrix)",
      "rotation": [
        -0.70710678118654746,
        -0,
        -0,
        0.70710678118654757
      ]
    },
    {
      "children": [
        2
      ],
      "name": "RootNode (model correction matrix)"
    },
    {
      "children": [
        3,
        4
      ],
      "name": "Icosahedrons.obj.cleaner.materialmerger.gles"
    },
    {
      "mesh": 0,
      "name": ""
    },
    {
      "mesh": 1,
      "name": ""
    }
  ],
  "scene": 0,
  "scenes": [
    {
      "name": "OSG_Scene",
      "nodes": [
        0
      ]
    }
  ]
}

